<?xml version="1.0" encoding="UTF-8"?>
<!DOCTYPE svg PUBLIC "-//W3C//DTD SVG 1.1//EN" "http://www.w3.org/Graphics/SVG/1.1/DTD/svg11.dtd">
<svg xmlns="http://www.w3.org/2000/svg" version="1.1" width="845px" height="844px" style="shape-rendering:geometricPrecision; text-rendering:geometricPrecision; image-rendering:optimizeQuality; fill-rule:evenodd; clip-rule:evenodd" xmlns:xlink="http://www.w3.org/1999/xlink">
<g><path style="opacity:1" fill="#000000" d="M 267.5,467.5 C 265.804,465.475 264.137,463.475 262.5,461.5C 258.409,455.653 254.076,449.987 249.5,444.5C 249.591,442.302 248.925,441.969 247.5,443.5C 247.5,442.833 247.167,442.5 246.5,442.5C 244.804,440.475 243.137,438.475 241.5,436.5C 237.196,430.521 232.862,424.521 228.5,418.5C 228.591,416.302 227.925,415.969 226.5,417.5C 225.833,416.167 224.833,415.167 223.5,414.5C 223.068,413.29 222.401,412.29 221.5,411.5C 218.745,408.987 216.745,405.987 215.5,402.5C 215.158,401.662 214.492,401.328 213.5,401.5C 212.488,400.128 211.488,398.795 210.5,397.5C 209.5,396.167 208.5,394.833 207.5,393.5C 207.672,392.508 207.338,391.842 206.5,391.5C 204.999,390.248 203.332,389.248 201.5,388.5C 201.672,387.508 201.338,386.842 200.5,386.5C 197.724,383.821 195.724,381.155 194.5,378.5C 195.815,377.105 195.481,376.105 193.5,375.5C 192.5,374.833 191.5,374.167 190.5,373.5C 186.739,367.576 181.906,361.91 176,356.5C 175.634,354.548 174.801,352.882 173.5,351.5C 173.158,350.662 172.492,350.328 171.5,350.5C 171.068,349.29 170.401,348.29 169.5,347.5C 169.027,346.094 168.027,345.427 166.5,345.5C 166.5,344.5 166.5,343.5 166.5,342.5C 166.167,341.5 165.5,340.833 164.5,340.5C 163.185,339.524 161.852,338.524 160.5,337.5C 157.719,334.066 155.386,330.399 153.5,326.5C 153.027,325.094 152.027,324.427 150.5,324.5C 149.833,323.5 149.167,322.5 148.5,321.5C 148.938,321.565 149.272,321.399 149.5,321C 148.529,319.519 147.196,318.685 145.5,318.5C 145.5,317.833 145.167,317.5 144.5,317.5C 144.5,317.167 144.5,316.833 144.5,316.5C 144.628,314.871 143.628,313.538 141.5,312.5C 140.833,312.167 140.167,311.833 139.5,311.5C 141.031,310.075 140.698,309.409 138.5,309.5C 137.694,308.272 136.694,307.272 135.5,306.5C 135.715,304.821 135.048,303.821 133.5,303.5C 131.471,301.142 129.471,298.808 127.5,296.5C 126.396,294.611 125.063,292.945 123.5,291.5C 123.167,290.833 122.833,290.167 122.5,289.5C 123.016,288.242 122.35,287.242 120.5,286.5C 119.357,286.092 118.357,285.425 117.5,284.5C 115.398,281.487 113.398,278.487 111.5,275.5C 111.158,274.662 110.492,274.328 109.5,274.5C 108.942,273.21 107.942,272.377 106.5,272C 107.056,271.617 107.389,271.117 107.5,270.5C 107.167,269.5 106.5,268.833 105.5,268.5C 104.833,268.167 104.167,267.833 103.5,267.5C 103.5,267.167 103.5,266.833 103.5,266.5C 102.92,264.251 101.587,262.585 99.5,261.5C 98.8333,261.5 98.5,261.167 98.5,260.5C 97.2498,258.068 95.7498,255.734 94,253.5C 93.3292,252.748 92.4959,252.414 91.5,252.5C 65.8797,220.374 40.0464,188.374 14,156.5C -1.80413,122.556 4.69587,93.7224 33.5,70C 41.1493,65.002 49.4826,61.6687 58.5,60C 296.816,58.3428 535.149,58.0095 773.5,59C 802.886,60.724 823.052,75.224 834,102.5C 839.922,123.044 837.255,142.378 826,160.5C 726.045,283.457 625.712,406.124 525,528.5C 524.667,600.833 524.333,673.167 524,745.5C 515.293,775.19 495.459,788.69 464.5,786C 459.232,785.133 454.232,783.466 449.5,781C 412.219,754.052 375.219,726.719 338.5,699C 326.561,689.288 319.727,676.788 318,661.5C 317.667,616.833 317.333,572.167 317,527.5C 300.72,507.245 284.22,487.245 267.5,467.5 Z M 104.5,136.5 C 318.07,136.167 531.57,136.501 745,137.5C 745.667,138.5 745.667,139.5 745,140.5C 704,189.833 663,239.167 622,288.5C 620.027,292.457 617.694,296.124 615,299.5C 603.207,312.28 591.873,325.28 581,338.5C 569.482,354.033 557.149,369.033 544,383.5C 536.898,393.385 529.565,403.051 522,412.5C 519.054,415.446 516.054,418.446 513,421.5C 501.333,436.5 489.667,451.5 478,466.5C 477.012,469.424 476.346,472.424 476,475.5C 475.833,554.835 475.333,634.169 474.5,713.5C 473.914,713.709 473.414,714.043 473,714.5C 460.833,705.667 448.667,696.833 436.5,688C 431.833,683.667 427.167,679.333 422.5,675C 418.5,672.333 414.5,669.667 410.5,667C 398,656.5 385.5,646 373,635.5C 372.667,581.167 372.333,526.833 372,472.5C 370.076,468.983 368.409,465.316 367,461.5C 278.356,354.677 190.19,247.344 102.5,139.5C 103.193,138.482 103.859,137.482 104.5,136.5 Z"/></g>
<g><path style="opacity:0.11" fill="#c2c5cd" d="M 791.5,207.5 C 792.525,207.897 792.692,208.563 792,209.5C 791.536,208.906 791.369,208.239 791.5,207.5 Z"/></g>
<g><path style="opacity:0.004" fill="#b5bcc4" d="M 791.5,210.5 C 792.833,211.167 792.833,211.167 791.5,210.5 Z"/></g>
<g><path style="opacity:0.004" fill="#b3bac3" d="M 791.5,211.5 C 790.833,212.167 790.833,212.167 791.5,211.5 Z"/></g>
<g><path style="opacity:0.129" fill="#bec2cb" d="M 788.5,214.5 C 787.833,214.833 787.167,215.167 786.5,215.5C 786.281,214.325 786.614,213.325 787.5,212.5C 788.298,212.957 788.631,213.624 788.5,214.5 Z"/></g>
<g><path style="opacity:0.004" fill="#b2b9c2" d="M 790.5,212.5 C 789.833,213.167 789.833,213.167 790.5,212.5 Z"/></g>
<g><path style="opacity:0.004" fill="#c3c8ce" d="M 788.5,214.5 C 789.833,215.167 789.833,215.167 788.5,214.5 Z"/></g>
<g><path style="opacity:0.067" fill="#bbc1cb" d="M 786.5,215.5 C 786.5,216.833 785.833,217.5 784.5,217.5C 784.5,216.167 785.167,215.5 786.5,215.5 Z"/></g>
<g><path style="opacity:0.824" fill="#c3c8d0" d="M 784.5,217.5 C 783.833,218.167 783.833,218.167 784.5,217.5 Z"/></g>
<g><path style="opacity:0.882" fill="#c4c9d0" d="M 779.5,222.5 C 780.833,223.167 780.833,223.167 779.5,222.5 Z"/></g>
<g><path style="opacity:0.008" fill="#fefffe" d="M 775.5,227.5 C 776.833,228.167 776.833,228.167 775.5,227.5 Z"/></g>
<g><path style="opacity:0.024" fill="#b0b4bc" d="M 775.5,228.5 C 774.833,229.167 774.833,229.167 775.5,228.5 Z"/></g>
<g><path style="opacity:0.004" fill="#b9bec5" d="M 774.5,230.5 C 775.833,231.167 775.833,231.167 774.5,230.5 Z"/></g>
<g><path style="opacity:0.004" fill="#bec3c9" d="M 774.5,231.5 C 773.833,232.167 773.833,232.167 774.5,231.5 Z"/></g>
<g><path style="opacity:0.004" fill="#b7bcc3" d="M 773.5,232.5 C 772.833,233.167 772.833,233.167 773.5,232.5 Z"/></g>
<g><path style="opacity:0.004" fill="#bbbfc6" d="M 771.5,234.5 C 772.833,235.167 772.833,235.167 771.5,234.5 Z"/></g>
<g><path style="opacity:0.004" fill="#b7bdc4" d="M 771.5,235.5 C 770.833,236.167 770.833,236.167 771.5,235.5 Z"/></g>
<g><path style="opacity:0.004" fill="#bbc1c8" d="M 770.5,236.5 C 769.833,237.167 769.833,237.167 770.5,236.5 Z"/></g>
<g><path style="opacity:0.188" fill="#c0c2ca" d="M 767.5,239.5 C 766.711,239.217 766.044,238.717 765.5,238C 766.816,237.472 767.483,237.972 767.5,239.5 Z"/></g>
<g><path style="opacity:0.004" fill="#bac0c8" d="M 769.5,237.5 C 768.833,238.167 768.833,238.167 769.5,237.5 Z"/></g>
<g><path style="opacity:0.004" fill="#c2c6cd" d="M 767.5,239.5 C 768.833,240.167 768.833,240.167 767.5,239.5 Z"/></g>
<g><path style="opacity:0.004" fill="#b9bec5" d="M 767.5,240.5 C 766.833,241.167 766.833,241.167 767.5,240.5 Z"/></g>
<g><path style="opacity:0.457" fill="#c3c8d1" d="M 762.5,243.5 C 762.415,242.005 763.081,241.005 764.5,240.5C 765.639,242.396 764.973,243.396 762.5,243.5 Z"/></g>
<g><path style="opacity:0.859" fill="#c2c6cd" d="M 762.5,243.5 C 761.833,244.167 761.833,244.167 762.5,243.5 Z"/></g>
<g><path style="opacity:0.004" fill="#b6bcc4" d="M 760.5,246.5 C 761.833,247.167 761.833,247.167 760.5,246.5 Z"/></g>
<g><path style="opacity:0.882" fill="#bcc0c7" d="M 756.5,249.5 C 757.833,250.167 757.833,250.167 756.5,249.5 Z"/></g>
<g><path style="opacity:0.039" fill="#c6cace" d="M 754.5,253.5 C 755.833,254.167 755.833,254.167 754.5,253.5 Z"/></g>
<g><path style="opacity:0.055" fill="#b6bac2" d="M 754.5,254.5 C 753.833,255.167 753.833,255.167 754.5,254.5 Z"/></g>
<g><path style="opacity:0.02" fill="#c2c7ce" d="M 91.5,252.5 C 92.4959,252.414 93.3292,252.748 94,253.5C 95.7498,255.734 97.2498,258.068 98.5,260.5C 95.1823,258.689 92.8489,256.022 91.5,252.5 Z"/></g>
<g><path style="opacity:0.004" fill="#bdc2c9" d="M 753.5,256.5 C 754.833,257.167 754.833,257.167 753.5,256.5 Z"/></g>
<g><path style="opacity:0.004" fill="#c0c4ca" d="M 753.5,257.5 C 752.833,258.167 752.833,258.167 753.5,257.5 Z"/></g>
<g><path style="opacity:0.004" fill="#c3c8cd" d="M 751.5,259.5 C 752.833,260.167 752.833,260.167 751.5,259.5 Z"/></g>
<g><path style="opacity:0.004" fill="#babfc6" d="M 751.5,260.5 C 750.833,261.167 750.833,261.167 751.5,260.5 Z"/></g>
<g><path style="opacity:0.004" fill="#b9bfc6" d="M 750.5,261.5 C 749.833,262.167 749.833,262.167 750.5,261.5 Z"/></g>
<g><path style="opacity:0.471" fill="#bcc1c9" d="M 99.5,261.5 C 101.587,262.585 102.92,264.251 103.5,266.5C 101.413,265.415 100.08,263.749 99.5,261.5 Z"/></g>
<g><path style="opacity:0.004" fill="#bdc3ca" d="M 749.5,262.5 C 748.833,263.167 748.833,263.167 749.5,262.5 Z"/></g>
<g><path style="opacity:0.251" fill="#bdc1c9" d="M 746.5,265.5 C 745.711,265.217 745.044,264.717 744.5,264C 745.816,263.472 746.483,263.972 746.5,265.5 Z"/></g>
<g><path style="opacity:0.004" fill="#b9bfc6" d="M 748.5,263.5 C 747.833,264.167 747.833,264.167 748.5,263.5 Z"/></g>
<g><path style="opacity:0.004" fill="#c1c6cc" d="M 746.5,265.5 C 747.833,266.167 747.833,266.167 746.5,265.5 Z"/></g>
<g><path style="opacity:0.004" fill="#bac0c7" d="M 746.5,266.5 C 745.833,267.167 745.833,267.167 746.5,266.5 Z"/></g>
<g><path style="opacity:0.004" fill="#b7bdc4" d="M 103.5,267.5 C 102.833,268.167 102.833,268.167 103.5,267.5 Z"/></g>
<g><path style="opacity:0.043" fill="#bac0ca" d="M 742.5,267.5 C 743.833,268.167 743.833,268.167 742.5,267.5 Z"/></g>
<g><path style="opacity:0.004" fill="#b6bdc5" d="M 745.5,267.5 C 744.833,268.167 744.833,268.167 745.5,267.5 Z"/></g>
<g><path style="opacity:0.02" fill="#c4c6c9" d="M 742.5,268.5 C 741.833,269.167 741.833,269.167 742.5,268.5 Z"/></g>
<g><path style="opacity:0.004" fill="#bdc2ca" d="M 104.5,270.5 C 103.833,269.167 103.833,269.167 104.5,270.5 Z"/></g>
<g><path style="opacity:0.51" fill="#b9bec5" d="M 105.5,268.5 C 106.5,268.833 107.167,269.5 107.5,270.5C 106.833,270.5 106.167,270.5 105.5,270.5C 105.5,269.833 105.5,269.167 105.5,268.5 Z"/></g>
<g><path style="opacity:0.004" fill="#c1c7cd" d="M 104.5,270.5 C 104.833,270.5 105.167,270.5 105.5,270.5C 105.315,271.17 104.981,271.17 104.5,270.5 Z"/></g>
<g><path style="opacity:0.059" fill="#c3c6cb" d="M 741.5,269.5 C 741.483,271.028 740.816,271.528 739.5,271C 740.044,270.283 740.711,269.783 741.5,269.5 Z"/></g>
<g><path style="opacity:0.012" fill="#c5c8cf" d="M 109.5,274.5 C 110.492,274.328 111.158,274.662 111.5,275.5C 110.075,277.031 109.409,276.698 109.5,274.5 Z"/></g>
<g><path style="opacity:0.02" fill="#dfe2e4" d="M 734.5,278.5 C 734.369,277.761 734.536,277.094 735,276.5C 735.692,277.437 735.525,278.103 734.5,278.5 Z"/></g>
<g><path style="opacity:0.035" fill="#c0c5cd" d="M 734.5,278.5 C 733.833,279.167 733.833,279.167 734.5,278.5 Z"/></g>
<g><path style="opacity:0.059" fill="#aeb4be" d="M 733.5,279.5 C 732.833,280.167 732.833,280.167 733.5,279.5 Z"/></g>
<g><path style="opacity:0.004" fill="#b8bec5" d="M 732.5,281.5 C 733.833,282.167 733.833,282.167 732.5,281.5 Z"/></g>
<g><path style="opacity:0.004" fill="#bcc0c7" d="M 732.5,282.5 C 731.833,283.167 731.833,283.167 732.5,282.5 Z"/></g>
<g><path style="opacity:0.004" fill="#c0c5cb" d="M 730.5,284.5 C 731.833,285.167 731.833,285.167 730.5,284.5 Z"/></g>
<g><path style="opacity:0.004" fill="#b5bac2" d="M 730.5,285.5 C 729.833,286.167 729.833,286.167 730.5,285.5 Z"/></g>
<g><path style="opacity:0.004" fill="#b5bbc2" d="M 729.5,286.5 C 728.833,287.167 728.833,287.167 729.5,286.5 Z"/></g>
<g><path style="opacity:0.004" fill="#bcc1c8" d="M 728.5,287.5 C 727.833,288.167 727.833,288.167 728.5,287.5 Z"/></g>
<g><path style="opacity:1" fill="#a5aab2" d="M 120.5,286.5 C 122.35,287.242 123.016,288.242 122.5,289.5C 121.094,289.027 120.427,288.027 120.5,286.5 Z"/></g>
<g><path style="opacity:0.004" fill="#b8bec4" d="M 727.5,288.5 C 726.833,289.167 726.833,289.167 727.5,288.5 Z"/></g>
<g><path style="opacity:0.204" fill="#bcbfc6" d="M 725.5,290.5 C 724.475,290.103 724.308,289.437 725,288.5C 725.464,289.094 725.631,289.761 725.5,290.5 Z"/></g>
<g><path style="opacity:0.004" fill="#b8bdc3" d="M 725.5,290.5 C 726.833,291.167 726.833,291.167 725.5,290.5 Z"/></g>
<g><path style="opacity:0.004" fill="#b5bac2" d="M 123.5,291.5 C 122.833,292.167 122.833,292.167 123.5,291.5 Z"/></g>
<g><path style="opacity:0.004" fill="#bbc1c9" d="M 724.5,292.5 C 725.833,293.167 725.833,293.167 724.5,292.5 Z"/></g>
<g><path style="opacity:0.004" fill="#b5bac2" d="M 123.5,293.5 C 124.833,294.167 124.833,294.167 123.5,293.5 Z"/></g>
<g><path style="opacity:0.094" fill="#bcc1ca" d="M 721.5,293.5 C 722.833,294.167 722.833,294.167 721.5,293.5 Z"/></g>
<g><path style="opacity:0.004" fill="#b6bdc6" d="M 724.5,293.5 C 723.833,294.167 723.833,294.167 724.5,293.5 Z"/></g>
<g><path style="opacity:0.067" fill="#bcbfc6" d="M 721.5,294.5 C 720.833,295.167 720.833,295.167 721.5,294.5 Z"/></g>
<g><path style="opacity:0.004" fill="#bec4cb" d="M 124.5,295.5 C 125.833,296.167 125.833,296.167 124.5,295.5 Z"/></g>
<g><path style="opacity:0.004" fill="#b3b9c1" d="M 127.5,296.5 C 126.833,297.167 126.833,297.167 127.5,296.5 Z"/></g>
<g><path style="opacity:0.098" fill="#babec7" d="M 720.5,295.5 C 720.573,297.027 719.906,298.027 718.5,298.5C 718.427,296.973 719.094,295.973 720.5,295.5 Z"/></g>
<g><path style="opacity:0.02" fill="#abb3be" d="M 718.5,298.5 C 717.833,299.167 717.833,299.167 718.5,298.5 Z"/></g>
<g><path style="opacity:0.496" fill="#b9bec8" d="M 717.5,299.5 C 716.833,300.833 715.833,301.833 714.5,302.5C 714.5,300.5 715.5,299.5 717.5,299.5 Z"/></g>
<g><path style="opacity:0.694" fill="#cbcdd2" d="M 133.5,303.5 C 135.048,303.821 135.715,304.821 135.5,306.5C 134.094,306.027 133.427,305.027 133.5,303.5 Z"/></g>
<g><path style="opacity:0.059" fill="#c8cbd2" d="M 714.5,302.5 C 714.672,303.492 714.338,304.158 713.5,304.5C 713.328,303.508 713.662,302.842 714.5,302.5 Z"/></g>
<g><path style="opacity:0.078" fill="#b6bcc4" d="M 713.5,304.5 C 712.833,305.167 712.833,305.167 713.5,304.5 Z"/></g>
<g><path style="opacity:0.094" fill="#b3b9c3" d="M 712.5,305.5 C 711.833,306.167 711.833,306.167 712.5,305.5 Z"/></g>
<g><path style="opacity:0.004" fill="#bcc1c8" d="M 711.5,307.5 C 712.833,308.167 712.833,308.167 711.5,307.5 Z"/></g>
<g><path style="opacity:0.004" fill="#bcc0c7" d="M 711.5,308.5 C 710.833,309.167 710.833,309.167 711.5,308.5 Z"/></g>
<g><path style="opacity:0.024" fill="#c0c4cc" d="M 138.5,309.5 C 140.698,309.409 141.031,310.075 139.5,311.5C 138.662,311.158 138.328,310.492 138.5,309.5 Z"/></g>
<g><path style="opacity:0.004" fill="#bec3c9" d="M 709.5,310.5 C 710.833,311.167 710.833,311.167 709.5,310.5 Z"/></g>
<g><path style="opacity:0.004" fill="#b7bcc4" d="M 709.5,311.5 C 708.833,312.167 708.833,312.167 709.5,311.5 Z"/></g>
<g><path style="opacity:0.004" fill="#bdc1c8" d="M 708.5,312.5 C 707.833,313.167 707.833,313.167 708.5,312.5 Z"/></g>
<g><path style="opacity:0.276" fill="#bbbfc8" d="M 141.5,312.5 C 143.628,313.538 144.628,314.871 144.5,316.5C 143.317,315.496 141.984,314.662 140.5,314C 141.056,313.617 141.389,313.117 141.5,312.5 Z"/></g>
<g><path style="opacity:0.004" fill="#c3c7ce" d="M 707.5,313.5 C 706.833,314.167 706.833,314.167 707.5,313.5 Z"/></g>
<g><path style="opacity:0.004" fill="#bcc1c7" d="M 706.5,314.5 C 705.833,315.167 705.833,315.167 706.5,314.5 Z"/></g>
<g><path style="opacity:0.004" fill="#bfc4ca" d="M 704.5,316.5 C 705.833,317.167 705.833,317.167 704.5,316.5 Z"/></g>
<g><path style="opacity:0.004" fill="#bec3c9" d="M 144.5,317.5 C 143.833,318.167 143.833,318.167 144.5,317.5 Z"/></g>
<g><path style="opacity:0.004" fill="#bcc1c8" d="M 704.5,317.5 C 703.833,318.167 703.833,318.167 704.5,317.5 Z"/></g>
<g><path style="opacity:1" fill="#b8bdc7" d="M 145.5,318.5 C 147.196,318.685 148.529,319.519 149.5,321C 149.272,321.399 148.938,321.565 148.5,321.5C 148.167,321.5 147.833,321.5 147.5,321.5C 146.833,320.5 146.167,319.5 145.5,318.5 Z"/></g>
<g><path style="opacity:0.004" fill="#bec4cb" d="M 702.5,318.5 C 702.833,318.5 703.167,318.5 703.5,318.5C 703.315,319.17 702.981,319.17 702.5,318.5 Z"/></g>
<g><path style="opacity:0.11" fill="#bec2ca" d="M 702.5,318.5 C 701.833,318.5 701.5,318.833 701.5,319.5C 700.833,319.833 700.167,320.167 699.5,320.5C 699.668,317.949 700.668,317.282 702.5,318.5 Z"/></g>
<g><path style="opacity:0.004" fill="#bec3cb" d="M 701.5,319.5 C 701.833,319.5 702.167,319.5 702.5,319.5C 702.315,320.17 701.981,320.17 701.5,319.5 Z"/></g>
<g><path style="opacity:0.004" fill="#c2c7cf" d="M 147.5,321.5 C 146.833,322.167 146.833,322.167 147.5,321.5 Z"/></g>
<g><path style="opacity:0.516" fill="#b8bec6" d="M 699.5,320.5 C 698.243,323.427 696.243,325.761 693.5,327.5C 694.757,324.573 696.757,322.239 699.5,320.5 Z"/></g>
<g><path style="opacity:0.278" fill="#c1c5cc" d="M 150.5,324.5 C 152.027,324.427 153.027,325.094 153.5,326.5C 151.877,327.491 150.877,326.824 150.5,324.5 Z"/></g>
<g><path style="opacity:0.071" fill="#c1c4cd" d="M 693.5,327.5 C 693.672,328.492 693.338,329.158 692.5,329.5C 692.328,328.508 692.662,327.842 693.5,327.5 Z"/></g>
<g><path style="opacity:0.086" fill="#b5bcc6" d="M 692.5,329.5 C 691.833,330.167 691.833,330.167 692.5,329.5 Z"/></g>
<g><path style="opacity:0.102" fill="#b4b9c3" d="M 691.5,330.5 C 690.833,331.167 690.833,331.167 691.5,330.5 Z"/></g>
<g><path style="opacity:0.125" fill="#bec5cc" d="M 690.5,331.5 C 689.833,332.167 689.833,332.167 690.5,331.5 Z"/></g>
<g><path style="opacity:0.149" fill="#c1c6cb" d="M 689.5,332.5 C 689.5,332.833 689.5,333.167 689.5,333.5C 688.83,333.019 688.83,332.685 689.5,332.5 Z"/></g>
<g><path style="opacity:0.004" fill="#b5bac1" d="M 689.5,333.5 C 690.833,334.167 690.833,334.167 689.5,333.5 Z"/></g>
<g><path style="opacity:0.22" fill="#bec3c9" d="M 688.5,335.5 C 687.833,334.167 687.833,334.167 688.5,335.5 Z"/></g>
<g><path style="opacity:0.004" fill="#b5bac2" d="M 688.5,335.5 C 689.833,336.167 689.833,336.167 688.5,335.5 Z"/></g>
<g><path style="opacity:0.271" fill="#c3c7ce" d="M 687.5,337.5 C 686.833,337.5 686.5,337.833 686.5,338.5C 685.957,338.44 685.624,338.107 685.5,337.5C 686.257,336.227 686.923,336.227 687.5,337.5 Z"/></g>
<g><path style="opacity:0.004" fill="#bec3ca" d="M 687.5,337.5 C 688.833,338.167 688.833,338.167 687.5,337.5 Z"/></g>
<g><path style="opacity:0.004" fill="#c3c8ce" d="M 686.5,338.5 C 686.833,338.5 687.167,338.5 687.5,338.5C 687.315,339.17 686.981,339.17 686.5,338.5 Z"/></g>
<g><path style="opacity:0.294" fill="#c1c5ca" d="M 684.5,340.5 C 683.833,339.167 683.833,339.167 684.5,340.5 Z"/></g>
<g><path style="opacity:0.004" fill="#babec4" d="M 684.5,340.5 C 685.833,341.167 685.833,341.167 684.5,340.5 Z"/></g>
<g><path style="opacity:0.655" fill="#bfc3ca" d="M 164.5,340.5 C 165.5,340.833 166.167,341.5 166.5,342.5C 165.167,342.5 164.5,341.833 164.5,340.5 Z"/></g>
<g><path style="opacity:0.004" fill="#bec3c9" d="M 683.5,342.5 C 684.833,343.167 684.833,343.167 683.5,342.5 Z"/></g>
<g><path style="opacity:0.004" fill="#bdc2c8" d="M 164.5,343.5 C 165.833,344.167 165.833,344.167 164.5,343.5 Z"/></g>
<g><path style="opacity:0.004" fill="#bdc2c9" d="M 682.5,343.5 C 682.833,343.5 683.167,343.5 683.5,343.5C 683.315,344.17 682.981,344.17 682.5,343.5 Z"/></g>
<g><path style="opacity:0.196" fill="#c0c4cc" d="M 682.5,343.5 C 681.833,343.5 681.5,343.833 681.5,344.5C 680.833,344.5 680.5,344.833 680.5,345.5C 679.833,345.5 679.5,345.833 679.5,346.5C 679.167,346.5 678.833,346.5 678.5,346.5C 678.942,343.668 680.275,342.668 682.5,343.5 Z"/></g>
<g><path style="opacity:0.004" fill="#c0c6cd" d="M 681.5,344.5 C 681.833,344.5 682.167,344.5 682.5,344.5C 682.315,345.17 681.981,345.17 681.5,344.5 Z"/></g>
<g><path style="opacity:0.004" fill="#c1c6ce" d="M 166.5,345.5 C 166.5,345.833 166.5,346.167 166.5,346.5C 165.83,346.019 165.83,345.685 166.5,345.5 Z"/></g>
<g><path style="opacity:0.004" fill="#bec3ca" d="M 680.5,345.5 C 680.833,345.5 681.167,345.5 681.5,345.5C 681.315,346.17 680.981,346.17 680.5,345.5 Z"/></g>
<g><path style="opacity:0.004" fill="#bec4cc" d="M 166.5,346.5 C 167.833,347.167 167.833,347.167 166.5,346.5 Z"/></g>
<g><path style="opacity:0.004" fill="#b5bbc2" d="M 679.5,346.5 C 679.833,346.5 680.167,346.5 680.5,346.5C 680.315,347.17 679.981,347.17 679.5,346.5 Z"/></g>
<g><path style="opacity:0.004" fill="#b1b6bf" d="M 169.5,347.5 C 168.833,348.167 168.833,348.167 169.5,347.5 Z"/></g>
<g><path style="opacity:0.333" fill="#c1c6cd" d="M 171.5,350.5 C 172.492,350.328 173.158,350.662 173.5,351.5C 172.075,353.031 171.409,352.698 171.5,350.5 Z"/></g>
<g><path style="opacity:0.086" fill="#b9bec7" d="M 678.5,346.5 C 677.581,349.089 675.914,351.089 673.5,352.5C 674.419,349.911 676.086,347.911 678.5,346.5 Z"/></g>
<g><path style="opacity:0.008" fill="#bbc0c9" d="M 673.5,352.5 C 673.573,354.027 672.906,355.027 671.5,355.5C 671.427,353.973 672.094,352.973 673.5,352.5 Z"/></g>
<g><path style="opacity:0.133" fill="#b3b9c3" d="M 671.5,355.5 C 670.833,356.167 670.833,356.167 671.5,355.5 Z"/></g>
<g><path style="opacity:0.153" fill="#babfc8" d="M 670.5,356.5 C 670.167,357.5 669.5,358.167 668.5,358.5C 668.5,357.167 669.167,356.5 670.5,356.5 Z"/></g>
<g><path style="opacity:0.2" fill="#bfc3c9" d="M 668.5,358.5 C 668.5,358.833 668.5,359.167 668.5,359.5C 667.83,359.019 667.83,358.685 668.5,358.5 Z"/></g>
<g><path style="opacity:0.004" fill="#b6bbc2" d="M 668.5,359.5 C 669.833,360.167 669.833,360.167 668.5,359.5 Z"/></g>
<g><path style="opacity:0.004" fill="#b7bdc5" d="M 667.5,361.5 C 668.833,362.167 668.833,362.167 667.5,361.5 Z"/></g>
<g><path style="opacity:0.278" fill="#c3c6cd" d="M 665.5,363.5 C 664.833,363.5 664.5,363.833 664.5,364.5C 663.957,364.44 663.624,364.107 663.5,363.5C 664.257,362.227 664.923,362.227 665.5,363.5 Z"/></g>
<g><path style="opacity:0.004" fill="#b3b9c2" d="M 667.5,362.5 C 666.833,363.167 666.833,363.167 667.5,362.5 Z"/></g>
<g><path style="opacity:0.004" fill="#bcc1c8" d="M 665.5,363.5 C 665.833,363.5 666.167,363.5 666.5,363.5C 666.315,364.17 665.981,364.17 665.5,363.5 Z"/></g>
<g><path style="opacity:0.004" fill="#c0c5cb" d="M 664.5,364.5 C 664.833,364.5 665.167,364.5 665.5,364.5C 665.315,365.17 664.981,365.17 664.5,364.5 Z"/></g>
<g><path style="opacity:0.004" fill="#b7bcc3" d="M 664.5,365.5 C 663.833,366.167 663.833,366.167 664.5,365.5 Z"/></g>
<g><path style="opacity:0.004" fill="#bbc0c7" d="M 662.5,367.5 C 663.833,368.167 663.833,368.167 662.5,367.5 Z"/></g>
<g><path style="opacity:0.004" fill="#bcc1c8" d="M 662.5,368.5 C 661.833,369.167 661.833,369.167 662.5,368.5 Z"/></g>
<g><path style="opacity:0.216" fill="#bec2c9" d="M 659.5,370.5 C 658.833,370.5 658.5,370.833 658.5,371.5C 658.167,371.5 657.833,371.5 657.5,371.5C 658.032,368.54 658.699,368.207 659.5,370.5 Z"/></g>
<g><path style="opacity:0.004" fill="#c3c7cd" d="M 659.5,370.5 C 660.833,371.167 660.833,371.167 659.5,370.5 Z"/></g>
<g><path style="opacity:0.004" fill="#b6bbc1" d="M 658.5,371.5 C 658.833,371.5 659.167,371.5 659.5,371.5C 659.315,372.17 658.981,372.17 658.5,371.5 Z"/></g>
<g><path style="opacity:0.004" fill="#c3c8cd" d="M 190.5,373.5 C 189.833,374.167 189.833,374.167 190.5,373.5 Z"/></g>
<g><path style="opacity:1" fill="#a3a8b0" d="M 193.5,375.5 C 195.481,376.105 195.815,377.105 194.5,378.5C 193.596,377.791 193.263,376.791 193.5,375.5 Z"/></g>
<g><path style="opacity:0.173" fill="#bfc4cd" d="M 657.5,371.5 C 654.826,376.177 651.659,380.51 648,384.5C 649.48,381.613 651.146,378.613 653,375.5C 654.371,373.959 655.871,372.625 657.5,371.5 Z"/></g>
<g><path style="opacity:0.004" fill="#b8bcc3" d="M 200.5,386.5 C 199.833,387.167 199.833,387.167 200.5,386.5 Z"/></g>
<g><path style="opacity:0.004" fill="#c4c8ce" d="M 647.5,386.5 C 648.833,387.167 648.833,387.167 647.5,386.5 Z"/></g>
<g><path style="opacity:0.004" fill="#b6bcc4" d="M 647.5,387.5 C 646.833,388.167 646.833,388.167 647.5,387.5 Z"/></g>
<g><path style="opacity:0.004" fill="#bbc0c6" d="M 201.5,388.5 C 200.833,389.167 200.833,389.167 201.5,388.5 Z"/></g>
<g><path style="opacity:0.341" fill="#c2c5cc" d="M 645.5,388.5 C 644.833,388.5 644.5,388.833 644.5,389.5C 643.833,389.5 643.5,389.833 643.5,390.5C 642.475,390.103 642.308,389.437 643,388.5C 643.977,387.226 644.811,387.226 645.5,388.5 Z"/></g>
<g><path style="opacity:0.004" fill="#b6bcc4" d="M 645.5,388.5 C 645.833,388.5 646.167,388.5 646.5,388.5C 646.315,389.17 645.981,389.17 645.5,388.5 Z"/></g>
<g><path style="opacity:0.004" fill="#c0c5cb" d="M 644.5,389.5 C 644.833,389.5 645.167,389.5 645.5,389.5C 645.315,390.17 644.981,390.17 644.5,389.5 Z"/></g>
<g><path style="opacity:0.004" fill="#c1c5cb" d="M 643.5,390.5 C 643.833,390.5 644.167,390.5 644.5,390.5C 644.315,391.17 643.981,391.17 643.5,390.5 Z"/></g>
<g><path style="opacity:1" fill="#acb0b6" d="M 206.5,391.5 C 207.338,391.842 207.672,392.508 207.5,393.5C 205.302,393.591 204.969,392.925 206.5,391.5 Z"/></g>
<g><path style="opacity:0.004" fill="#c3c7cd" d="M 642.5,392.5 C 643.833,393.167 643.833,393.167 642.5,392.5 Z"/></g>
<g><path style="opacity:0.004" fill="#bcc0c7" d="M 642.5,393.5 C 641.833,394.167 641.833,394.167 642.5,393.5 Z"/></g>
<g><path style="opacity:0.004" fill="#c0c4cb" d="M 641.5,394.5 C 640.833,395.167 640.833,395.167 641.5,394.5 Z"/></g>
<g><path style="opacity:0.004" fill="#c1c5cb" d="M 638.5,396.5 C 639.833,397.167 639.833,397.167 638.5,396.5 Z"/></g>
<g><path style="opacity:0.004" fill="#b3b9c2" d="M 210.5,397.5 C 209.833,398.167 209.833,398.167 210.5,397.5 Z"/></g>
<g><path style="opacity:0.278" fill="#bfc3cb" d="M 638.5,396.5 C 637.662,396.842 637.328,397.508 637.5,398.5C 634.061,402.36 630.395,406.027 626.5,409.5C 629.831,404.2 633.664,399.2 638,394.5C 638.464,395.094 638.631,395.761 638.5,396.5 Z"/></g>
<g><path style="opacity:0.004" fill="#c4c8ce" d="M 637.5,398.5 C 638.833,399.167 638.833,399.167 637.5,398.5 Z"/></g>
<g><path style="opacity:0.031" fill="#bfc4cd" d="M 213.5,401.5 C 214.492,401.328 215.158,401.662 215.5,402.5C 214.075,404.031 213.409,403.698 213.5,401.5 Z"/></g>
<g><path style="opacity:0.004" fill="#b5bac1" d="M 221.5,411.5 C 220.833,412.167 220.833,412.167 221.5,411.5 Z"/></g>
<g><path style="opacity:0.325" fill="#bcc0ca" d="M 626.5,409.5 C 626.443,410.609 626.11,411.609 625.5,412.5C 624.285,411.221 624.618,410.221 626.5,409.5 Z"/></g>
<g><path style="opacity:0.004" fill="#b6bcc5" d="M 625.5,412.5 C 626.833,413.167 626.833,413.167 625.5,412.5 Z"/></g>
<g><path style="opacity:0.365" fill="#c0c3cb" d="M 623.5,414.5 C 622.833,414.5 622.5,414.833 622.5,415.5C 621.957,415.44 621.624,415.107 621.5,414.5C 622.257,413.227 622.923,413.227 623.5,414.5 Z"/></g>
<g><path style="opacity:0.004" fill="#b4bbc4" d="M 625.5,413.5 C 624.833,414.167 624.833,414.167 625.5,413.5 Z"/></g>
<g><path style="opacity:0.004" fill="#b5bac2" d="M 223.5,414.5 C 222.833,415.167 222.833,415.167 223.5,414.5 Z"/></g>
<g><path style="opacity:0.004" fill="#bcc1c9" d="M 623.5,414.5 C 623.833,414.5 624.167,414.5 624.5,414.5C 624.315,415.17 623.981,415.17 623.5,414.5 Z"/></g>
<g><path style="opacity:0.004" fill="#bcc0c7" d="M 622.5,415.5 C 622.833,415.5 623.167,415.5 623.5,415.5C 623.315,416.17 622.981,416.17 622.5,415.5 Z"/></g>
<g><path style="opacity:1" fill="#a8acb1" d="M 228.5,418.5 C 227.508,418.672 226.842,418.338 226.5,417.5C 227.925,415.969 228.591,416.302 228.5,418.5 Z"/></g>
<g><path style="opacity:0.004" fill="#c0c4cb" d="M 621.5,417.5 C 622.833,418.167 622.833,418.167 621.5,417.5 Z"/></g>
<g><path style="opacity:0.004" fill="#b6bcc4" d="M 621.5,418.5 C 620.833,419.167 620.833,419.167 621.5,418.5 Z"/></g>
<g><path style="opacity:0.004" fill="#bbc1c8" d="M 619.5,419.5 C 619.833,419.5 620.167,419.5 620.5,419.5C 620.315,420.17 619.981,420.17 619.5,419.5 Z"/></g>
<g><path style="opacity:0.365" fill="#c2c7cd" d="M 619.5,419.5 C 618.833,419.5 618.5,419.833 618.5,420.5C 617.833,420.5 617.5,420.833 617.5,421.5C 616.475,421.103 616.308,420.437 617,419.5C 617.977,418.226 618.811,418.226 619.5,419.5 Z"/></g>
<g><path style="opacity:0.004" fill="#c3c8ce" d="M 618.5,420.5 C 618.833,420.5 619.167,420.5 619.5,420.5C 619.315,421.17 618.981,421.17 618.5,420.5 Z"/></g>
<g><path style="opacity:0.004" fill="#bfc4ca" d="M 617.5,421.5 C 617.833,421.5 618.167,421.5 618.5,421.5C 618.315,422.17 617.981,422.17 617.5,421.5 Z"/></g>
<g><path style="opacity:0.329" fill="#bbc0c8" d="M 616.5,423.5 C 615.833,423.833 615.167,424.167 614.5,424.5C 614.711,422.576 615.377,422.243 616.5,423.5 Z"/></g>
<g><path style="opacity:0.004" fill="#bec3ca" d="M 616.5,423.5 C 617.833,424.167 617.833,424.167 616.5,423.5 Z"/></g>
<g><path style="opacity:0.235" fill="#babec6" d="M 614.5,424.5 C 613.396,426.389 612.063,428.055 610.5,429.5C 610.67,426.796 612.003,425.129 614.5,424.5 Z"/></g>
<g><path style="opacity:0.271" fill="#bcc1ca" d="M 610.5,429.5 C 609.684,432.107 608.017,434.107 605.5,435.5C 606.419,432.911 608.086,430.911 610.5,429.5 Z"/></g>
<g><path style="opacity:0.004" fill="#bcc1c7" d="M 241.5,436.5 C 240.833,437.167 240.833,437.167 241.5,436.5 Z"/></g>
<g><path style="opacity:0.373" fill="#c0c4cc" d="M 605.5,435.5 C 605.672,436.492 605.338,437.158 604.5,437.5C 604.328,436.508 604.662,435.842 605.5,435.5 Z"/></g>
<g><path style="opacity:0.392" fill="#b8bfc7" d="M 604.5,437.5 C 603.833,438.167 603.833,438.167 604.5,437.5 Z"/></g>
<g><path style="opacity:0.004" fill="#b8bec7" d="M 603.5,439.5 C 604.833,440.167 604.833,440.167 603.5,439.5 Z"/></g>
<g><path style="opacity:0.443" fill="#bec2ca" d="M 603.5,438.5 C 603.5,438.833 603.5,439.167 603.5,439.5C 602.833,439.5 602.5,439.833 602.5,440.5C 601.833,440.5 601.5,440.833 601.5,441.5C 600.282,439.668 600.949,438.668 603.5,438.5 Z"/></g>
<g><path style="opacity:0.004" fill="#bec3ca" d="M 602.5,440.5 C 602.833,440.5 603.167,440.5 603.5,440.5C 603.315,441.17 602.981,441.17 602.5,440.5 Z"/></g>
<g><path style="opacity:0.004" fill="#bbc0c7" d="M 601.5,441.5 C 601.833,441.5 602.167,441.5 602.5,441.5C 602.315,442.17 601.981,442.17 601.5,441.5 Z"/></g>
<g><path style="opacity:0.004" fill="#bfc3c9" d="M 246.5,442.5 C 245.833,443.167 245.833,443.167 246.5,442.5 Z"/></g>
<g><path style="opacity:1" fill="#abafb5" d="M 249.5,444.5 C 248.508,444.672 247.842,444.338 247.5,443.5C 248.925,441.969 249.591,442.302 249.5,444.5 Z"/></g>
<g><path style="opacity:0.004" fill="#bdc2c9" d="M 600.5,443.5 C 601.833,444.167 601.833,444.167 600.5,443.5 Z"/></g>
<g><path style="opacity:0.494" fill="#c5cad0" d="M 598.5,445.5 C 597.833,444.167 597.833,444.167 598.5,445.5 Z"/></g>
<g><path style="opacity:0.004" fill="#b8bdc5" d="M 600.5,444.5 C 599.833,445.167 599.833,445.167 600.5,444.5 Z"/></g>
<g><path style="opacity:0.004" fill="#c0c5cc" d="M 598.5,445.5 C 598.833,445.5 599.167,445.5 599.5,445.5C 599.315,446.17 598.981,446.17 598.5,445.5 Z"/></g>
<g><path style="opacity:0.471" fill="#c2c6cd" d="M 596.5,447.5 C 595.833,446.167 595.833,446.167 596.5,447.5 Z"/></g>
<g><path style="opacity:0.004" fill="#bdc1c8" d="M 596.5,447.5 C 597.833,448.167 597.833,448.167 596.5,447.5 Z"/></g>
<g><path style="opacity:0.412" fill="#c0c3cc" d="M 595.5,449.5 C 594.609,450.11 593.609,450.443 592.5,450.5C 593.221,448.618 594.221,448.285 595.5,449.5 Z"/></g>
<g><path style="opacity:0.004" fill="#c0c4cb" d="M 595.5,449.5 C 596.833,450.167 596.833,450.167 595.5,449.5 Z"/></g>
<g><path style="opacity:0.322" fill="#b7bcc3" d="M 592.5,450.5 C 591.833,451.167 591.833,451.167 592.5,450.5 Z"/></g>
<g><path style="opacity:0.298" fill="#bfc3cb" d="M 591.5,451.5 C 590.657,455.675 588.324,458.675 584.5,460.5C 586.458,457.208 588.791,454.208 591.5,451.5 Z"/></g>
<g><path style="opacity:0.004" fill="#b7bcc3" d="M 262.5,461.5 C 261.833,462.167 261.833,462.167 262.5,461.5 Z"/></g>
<g><path style="opacity:0.404" fill="#bec3cc" d="M 584.5,460.5 C 584.611,461.117 584.944,461.617 585.5,462C 583.676,462.66 582.343,463.827 581.5,465.5C 580.913,463.315 581.913,461.648 584.5,460.5 Z"/></g>
<g><path style="opacity:0.004" fill="#bdc2c9" d="M 581.5,465.5 C 582.833,466.167 582.833,466.167 581.5,465.5 Z"/></g>
<g><path style="opacity:0.004" fill="#b7bdc4" d="M 581.5,466.5 C 580.833,467.167 580.833,467.167 581.5,466.5 Z"/></g>
<g><path style="opacity:0.004" fill="#bcc1c7" d="M 267.5,467.5 C 266.833,468.167 266.833,468.167 267.5,467.5 Z"/></g>
<g><path style="opacity:0.004" fill="#bcc2ca" d="M 579.5,468.5 C 580.833,469.167 580.833,469.167 579.5,468.5 Z"/></g>
<g><path style="opacity:0.004" fill="#b5bbc5" d="M 579.5,469.5 C 578.833,470.167 578.833,470.167 579.5,469.5 Z"/></g>
<g><path style="opacity:0.004" fill="#b8bec7" d="M 578.5,470.5 C 577.833,471.167 577.833,471.167 578.5,470.5 Z"/></g>
<g><path style="opacity:0.004" fill="#b8bec5" d="M 577.5,471.5 C 576.833,472.167 576.833,472.167 577.5,471.5 Z"/></g>
<g><path style="opacity:0.004" fill="#bcc0c7" d="M 575.5,473.5 C 576.833,474.167 576.833,474.167 575.5,473.5 Z"/></g>
<g><path style="opacity:0.49" fill="#c3c6cd" d="M 571.5,476.5 C 572.002,474.915 573.002,474.415 574.5,475C 573.756,476.039 572.756,476.539 571.5,476.5 Z"/></g>
<g><path style="opacity:0.396" fill="#b7bcc3" d="M 571.5,476.5 C 570.833,477.167 570.833,477.167 571.5,476.5 Z"/></g>
<g><path style="opacity:0.357" fill="#bcc0c7" d="M 569.5,478.5 C 570.833,479.167 570.833,479.167 569.5,478.5 Z"/></g>
<g><path style="opacity:0.129" fill="#c0c4cc" d="M 569.5,479.5 C 569.5,480.5 569.5,481.5 569.5,482.5C 568.5,482.5 567.5,482.5 566.5,482.5C 567.167,481.167 568.167,480.167 569.5,479.5 Z"/></g>
<g><path style="opacity:0.133" fill="#bfc3ca" d="M 566.5,482.5 C 566.715,484.179 566.048,485.179 564.5,485.5C 564.427,483.973 565.094,482.973 566.5,482.5 Z"/></g>
<g><path style="opacity:0.49" fill="#bfc4cd" d="M 564.5,485.5 C 563.999,488.401 562.333,489.901 559.5,490C 561.037,488.293 562.704,486.793 564.5,485.5 Z"/></g>
<g><path style="opacity:0.004" fill="#b6bcc3" d="M 559.5,492.5 C 560.833,493.167 560.833,493.167 559.5,492.5 Z"/></g>
<g><path style="opacity:0.004" fill="#bac0c9" d="M 558.5,494.5 C 559.833,495.167 559.833,495.167 558.5,494.5 Z"/></g>
<g><path style="opacity:0.004" fill="#b7bdc6" d="M 558.5,495.5 C 557.833,496.167 557.833,496.167 558.5,495.5 Z"/></g>
<g><path style="opacity:0.004" fill="#bcc1c9" d="M 557.5,496.5 C 556.833,497.167 556.833,497.167 557.5,496.5 Z"/></g>
<g><path style="opacity:0.004" fill="#bbbfc6" d="M 556.5,497.5 C 555.833,498.167 555.833,498.167 556.5,497.5 Z"/></g>
</svg>
